<?xml version="1.0" encoding="UTF-8" standalone="no"?>
<!-- Generator: Adobe Illustrator 19.0.0, SVG Export Plug-In . SVG Version: 6.00 Build 0)  -->

<svg
   version="1.1"
   id="Layer_1"
   x="0px"
   y="0px"
   viewBox="0 0 266.39999 266.20001"
   xml:space="preserve"
   sodipodi:docname="tt-logo-white.svg"
   width="266.39999"
   height="266.20001"
   inkscape:version="1.2.2 (b0a8486541, 2022-12-01)"
   xmlns:inkscape="http://www.inkscape.org/namespaces/inkscape"
   xmlns:sodipodi="http://sodipodi.sourceforge.net/DTD/sodipodi-0.dtd"
   xmlns="http://www.w3.org/2000/svg"
   xmlns:svg="http://www.w3.org/2000/svg"><defs
   id="defs9" /><sodipodi:namedview
   id="namedview7"
   pagecolor="#505050"
   bordercolor="#eeeeee"
   borderopacity="1"
   inkscape:showpageshadow="0"
   inkscape:pageopacity="0"
   inkscape:pagecheckerboard="0"
   inkscape:deskcolor="#505050"
   showgrid="false"
   inkscape:zoom="1.309457"
   inkscape:cx="46.584195"
   inkscape:cy="132.11583"
   inkscape:window-width="1920"
   inkscape:window-height="1020"
   inkscape:window-x="0"
   inkscape:window-y="0"
   inkscape:window-maximized="1"
   inkscape:current-layer="Layer_1" />
<g
   id="g4"
   transform="translate(-207.8,-96.4)"
   style="fill:#ffffff">
	<path
   d="m 341,96.4 c -44.5,0 -83.9,21.9 -108.1,55.5 -7.9,11 -14.2,23.2 -18.5,36.4 h 21.6 52.1 v 90.1 h 39.3 v -24.3 h 22.7 v 87.8 c -3,0.3 -6.1,0.4 -9.2,0.4 -62.2,0 -112.8,-50.6 -112.8,-112.8 0,-10.3 1.4,-20.2 4,-29.6 h -21 c -2.2,9.5 -3.3,19.4 -3.3,29.6 0,73.4 59.7,133.1 133.1,133.1 3.1,0 6.1,-0.1 9.2,-0.3 1.7,-0.1 3.4,-0.3 5.1,-0.5 0.1,0 0.3,0 0.4,0 11.8,-1.3 23.1,-4.1 33.8,-8.3 v 0 c 0,0 0,0 0,0 V 254.1 H 428 V 217.7 H 327.5 V 188.2 H 366 V 151.8 H 259.3 c 20.5,-21.6 49.6,-35.1 81.7,-35.1 62.2,0 112.8,50.6 112.8,112.8 0,40.1 -21,75.4 -52.6,95.4 v 23.4 c 43.3,-22 73,-67 73,-118.8 C 474.1,156.1 414.4,96.4 341,96.4 Z"
   id="path2"
   style="fill:#ffffff" />
</g>
</svg>
