<?xml version="1.0" encoding="UTF-8" standalone="no"?>
<!-- Created with Inkscape (http://www.inkscape.org/) -->

<svg
   width="220"
   height="220"
   viewBox="0 0 58.208332 58.208334"
   version="1.1"
   id="svg1"
   xml:space="preserve"
   xmlns="http://www.w3.org/2000/svg"
   xmlns:svg="http://www.w3.org/2000/svg"><defs
     id="defs1" /><g
     id="layer1"><g
       id="g1"
       transform="matrix(1.277025,1.0637767,-1.0637767,1.277025,34.996016,-23.070674)"><path
         d="m 27.308399,15.608468 c -0.0047,0.04606 -0.01201,0.09131 -0.02074,0.136048 -0.0023,0.01141 -0.0046,0.02243 -0.0071,0.03364 -0.01129,0.05212 -0.02522,0.103235 -0.04173,0.153002 -0.0048,0.01479 -0.01023,0.02914 -0.01551,0.04351 -0.01542,0.04261 -0.03256,0.08431 -0.05142,0.124931 -0.0056,0.01234 -0.01103,0.02451 -0.01717,0.03661 -0.02421,0.04862 -0.05083,0.09591 -0.07982,0.141495 -0.0024,0.0038 -0.0046,0.0077 -0.0068,0.01131 -0.0026,0.0037 -0.0056,0.0071 -0.0082,0.01098 -0.02832,0.04257 -0.0585,0.08367 -0.09066,0.122943 -0.0025,0.0032 -0.0052,0.0064 -0.0077,0.0096 -0.0043,0.0052 -0.0089,0.01037 -0.0134,0.01554 -0.03281,0.03848 -0.06746,0.07531 -0.103923,0.110325 -8.11e-4,8.26e-4 -0.0018,0.0016 -0.0026,0.0025 -0.0062,0.0059 -0.01229,0.01184 -0.01869,0.01755 -0.03913,0.0362 -0.07987,0.07041 -0.122374,0.102269 -0.0073,0.0054 -0.01452,0.01052 -0.02178,0.01578 -0.04297,0.03108 -0.08738,0.0602 -0.133344,0.08679 -0.0079,0.0045 -0.01596,0.0086 -0.02369,0.01304 -0.04353,0.02412 -0.08811,0.04594 -0.133759,0.06584 -0.01198,0.0051 -0.02363,0.01069 -0.03576,0.01563 -0.01612,0.0065 -0.03238,0.01271 -0.0488,0.01867 -0.01566,0.0057 -0.0318,0.01058 -0.04759,0.01571 -0.01222,0.004 -0.02433,0.0086 -0.03669,0.01227 -0.01444,0.0044 -0.02924,0.0087 -0.0438,0.01245 -5.58e-4,1.25e-4 -9.36e-4,2.69e-4 -0.0015,3.94e-4 -0.03158,0.0084 -0.0636,0.0159 -0.09588,0.02225 -0.01374,0.0028 -0.02745,0.0054 -0.04131,0.0076 -0.03478,0.0059 -0.06961,0.01056 -0.104883,0.01424 -0.0024,3.02e-4 -0.0048,7.84e-4 -0.0072,9.06e-4 -0.0055,5.31e-4 -0.01102,0.0011 -0.0167,0.0016 -0.0165,0.0014 -0.03322,0.0013 -0.04983,0.002 -0.02338,0.0011 -0.04663,0.0027 -0.0701,0.0029 -0.01164,8.9e-5 -0.02327,-10e-7 -0.03487,-2.72e-4 -0.03829,-6.2e-4 -0.0768,-0.0027 -0.115522,-0.0063 -0.0045,-2.77e-4 -0.0089,-1.76e-4 -0.01339,-6.33e-4 l -0.0014,-1.46e-4 c -0.843853,-0.08577 -1.460686,-0.841966 -1.374903,-1.685998 l 1.1e-4,-0.0011 c 9.1e-5,-9e-4 1.83e-4,-0.0018 2.74e-4,-0.0027 1.65e-4,-0.0016 5.09e-4,-0.0032 8.54e-4,-0.0048 0.003,-0.02969 0.0083,-0.05842 0.01326,-0.08754 0.0016,-0.0084 0.0023,-0.01704 0.0039,-0.02542 4.35e-4,-0.0025 7.28e-4,-0.0054 0.0012,-0.0079 v 0 c 0.0079,-0.03992 0.01712,-0.07897 0.02776,-0.11752 0.0052,-0.01928 0.0091,-0.03907 0.01498,-0.05792 0.0019,-0.0058 0.0044,-0.01137 0.0065,-0.01716 0.01396,-0.04257 0.02898,-0.08486 0.04638,-0.125444 0.0045,-0.01063 0.0099,-0.0208 0.01481,-0.03122 0.0101,-0.02242 0.02107,-0.04458 0.03219,-0.06635 0.0137,-0.02569 0.02756,-0.05119 0.04245,-0.07604 0.0092,-0.0156 0.02045,-0.02955 0.03018,-0.04474 0.02354,-0.03669 0.04658,-0.0738 0.07299,-0.108197 0.0071,-0.0093 0.01525,-0.01772 0.02254,-0.02679 0.0031,-0.0035 0.0064,-0.0072 0.0095,-0.01085 0.0293,-0.03611 0.05894,-0.07199 0.09123,-0.105252 v 0 c 0.08869,-0.09097 0.188061,-0.170852 0.296088,-0.237494 0.0033,-0.002 0.0068,-0.004 0.01007,-0.0061 0.04067,-0.02459 0.08262,-0.04741 0.12563,-0.06813 0.04301,-0.02072 0.08691,-0.03952 0.131872,-0.05622 0.01568,-0.0059 0.03139,-0.0119 0.04737,-0.01718 0.0226,-0.0077 0.0453,-0.01467 0.06835,-0.02141 0.02097,-0.006 0.04222,-0.01116 0.06344,-0.01609 0.0023,-6.8e-4 0.0045,-0.0012 0.0067,-0.0017 0.01807,-0.0043 0.0362,-0.0092 0.05457,-0.01281 0.0048,-9.64e-4 0.0096,-0.0012 0.01422,-0.0022 0.0087,-0.0011 0.01733,-0.0024 0.02585,-0.0039 0.02792,-0.0046 0.05587,-0.0096 0.0842,-0.01289 0.01526,-0.0017 0.03061,-0.0025 0.04584,-0.0039 0.03225,-0.0025 0.06461,-0.0043 0.09702,-0.0049 0.01476,-3.18e-4 0.02933,-6.55e-4 0.04422,-4.15e-4 0.04558,4.52e-4 0.09156,0.0024 0.137816,0.0069 7.2e-4,7.3e-5 0.0014,1.46e-4 0.002,2.01e-4 0.0547,0.0056 0.10991,0.01499 0.165587,0.02701 0.0021,5.8e-4 0.0043,9.79e-4 0.0064,0.0014 0.0014,1.47e-4 0.0028,6.53e-4 0.0043,7.99e-4 3.6e-4,3.7e-5 8.99e-4,9.2e-5 0.0014,1.46e-4 v 0 c 0.0025,6.16e-4 0.0048,0.0014 0.0071,0.002 0.01902,0.0043 0.03837,0.01063 0.05747,0.01584 0.0037,0.0011 0.0074,0.0022 0.01131,0.0031 0.02725,0.0073 0.05492,0.01412 0.08143,0.02336 0.04059,0.01376 0.0796,0.03063 0.118585,0.04768 0.01637,0.0071 0.0336,0.01287 0.04971,0.02069 8.63e-4,4.51e-4 0.0019,0.0011 0.0028,0.0016 v 0 c 0.0513,0.02467 0.101051,0.05208 0.148925,0.08185 0.01111,0.0069 0.02245,0.01337 0.03335,0.02066 0.02504,0.01654 0.04909,0.03389 0.07309,0.05178 0.01183,0.0088 0.02367,0.01749 0.03528,0.02667 0.01042,0.0083 0.02043,0.01717 0.03046,0.02582 1.8e-4,1.8e-5 3.42e-4,2.16e-4 3.42e-4,2.16e-4 0.01206,0.01013 0.0245,0.02012 0.03634,0.0306 0.01251,0.01109 0.0248,0.02252 0.03691,0.03393 0.01409,0.01343 0.02794,0.02738 0.04161,0.04131 0.0059,0.0061 0.01225,0.01179 0.018,0.01783 0.01164,0.01245 0.02272,0.02503 0.03397,0.03781 0.02021,0.02296 0.04006,0.04588 0.05889,0.06979 0.0053,0.0067 0.01025,0.01358 0.01519,0.02045 0.03126,0.04117 0.06036,0.08394 0.08716,0.127928 0.02728,0.04458 0.05222,0.09075 0.07503,0.138147 0.0092,0.01839 0.01846,0.0366 0.02654,0.05541 0.0056,0.01311 0.01057,0.02652 0.01575,0.03996 0.0019,0.0049 0.0037,0.0098 0.0058,0.01477 0.0099,0.02573 0.01968,0.05145 0.02827,0.07777 0.0011,0.0032 0.0019,0.0064 0.0028,0.0097 0.0048,0.01557 0.0094,0.03095 0.0138,0.04667 0.0078,0.02697 0.01485,0.05423 0.02096,0.08175 0.0021,0.0097 0.004,0.0195 0.0059,0.02914 0.0018,0.0091 0.004,0.01804 0.0056,0.02711 0.0054,0.02909 0.0095,0.05841 0.01341,0.08807 0.0011,0.009 0.0021,0.01821 0.0032,0.02741 0.0011,0.0088 0.0024,0.01769 0.0031,0.02649 0.0028,0.03301 0.0043,0.06643 0.0051,0.09995 4.61e-4,0.01514 0.0013,0.02995 0.0014,0.04523 -2.42e-4,0.04887 -0.0024,0.09829 -0.0074,0.148127 -5.5e-5,5.4e-4 -9.2e-5,9e-4 -1.47e-4,0.0014 m -5.462412,0.947641 c -0.114746,0.0147 -0.232352,0.01819 -0.352003,0.006 -0.313431,-0.03186 -0.595436,-0.156499 -0.821661,-0.343461 -0.383207,-0.316533 -0.60717,-0.811935 -0.553261,-1.342357 0.01931,-0.190002 0.07407,-0.367493 0.154845,-0.529071 0.189225,-0.379058 0.527375,-0.66554 0.931556,-0.787885 0.188686,-0.05717 0.391423,-0.07911 0.599598,-0.05795 0.843852,0.08577 1.460668,0.842145 1.374903,1.685998 -0.07359,0.724022 -0.64122,1.27949 -1.333996,1.368869 M 19.932654,12.8301 c -0.04403,0.01643 -0.08897,0.03113 -0.134606,0.04376 -0.0082,0.0023 -0.01629,0.0047 -0.02452,0.007 -0.05226,0.01341 -0.105349,0.02419 -0.15942,0.03215 -0.0055,7.11e-4 -0.01087,0.0014 -0.0164,0.0022 -0.04552,0.0061 -0.09181,0.009 -0.138566,0.01118 -0.01515,6.41e-4 -0.0302,0.002 -0.0455,0.0023 -0.05751,6.99e-4 -0.115692,-10e-4 -0.174528,-0.007 -0.0029,-2.93e-4 -0.0055,-9.27e-4 -0.0084,-0.0012 -0.83654,-0.08975 -1.447213,-0.838596 -1.366983,-1.676285 2.93e-4,-0.0029 2.08e-4,-0.0056 5e-4,-0.0085 0.005,-0.04948 0.01288,-0.09813 0.02246,-0.145871 0.0031,-0.01605 0.0076,-0.03141 0.01116,-0.04722 0.0074,-0.03143 0.01493,-0.06284 0.02423,-0.09352 0.0046,-0.01516 0.0098,-0.02991 0.01492,-0.04484 7.59e-4,-0.0021 0.0014,-0.0046 0.0021,-0.0067 2.53e-4,-7.01e-4 5.25e-4,-0.0016 7.96e-4,-0.0025 0.0093,-0.02741 0.01914,-0.05423 0.02986,-0.08095 0.0075,-0.0185 0.01537,-0.03679 0.02357,-0.05487 0.01127,-0.02503 0.0232,-0.04945 0.03582,-0.07344 0.0032,-0.0062 0.0065,-0.01206 0.0097,-0.01829 0.0063,-0.0119 0.01244,-0.024 0.01908,-0.03569 0.01307,-0.02303 0.02734,-0.04539 0.04159,-0.06758 0.01104,-0.01742 0.02174,-0.03506 0.03363,-0.05185 0.01108,-0.01596 0.02318,-0.03127 0.03527,-0.04659 0.03151,-0.0417 0.0652,-0.08172 0.10052,-0.11976 v 0 c 0,0 0.0012,-0.0013 0.0018,-0.0018 v 0 c 0.03569,-0.03818 0.07302,-0.07456 0.112126,-0.108764 0.0062,-0.0056 0.01222,-0.01112 0.01842,-0.01667 0.02366,-0.01996 0.04811,-0.03874 0.0729,-0.05731 0.01281,-0.0098 0.0258,-0.01956 0.03892,-0.02877 0.01526,-0.01063 0.03098,-0.02048 0.04655,-0.03053 0.0086,-0.0055 0.01697,-0.01136 0.02571,-0.01684 0.0134,-0.0085 0.02713,-0.01651 0.04085,-0.02457 0.0083,-0.0046 0.01673,-0.009 0.025,-0.01346 0.01792,-0.01 0.03568,-0.02019 0.05407,-0.02941 0.01073,-0.0055 0.02161,-0.01053 0.03267,-0.01559 0.03895,-0.0184 0.07868,-0.03545 0.119123,-0.050608 0,0 0,0 0,0 v 0 c 0.04894,-0.018294 0.09933,-0.032987 0.150158,-0.046545 0.01158,-0.003 0.02315,-0.00601 0.03487,-0.00864 0.01321,-0.00302 0.02673,-0.00546 0.03991,-0.00812 0.03363,-0.00713 0.06738,-0.013694 0.101867,-0.01855 0.03577,-0.00491 0.07156,-0.00836 0.107972,-0.010659 0.0086,-5.799e-4 0.0174,-0.00132 0.02599,-0.00172 0.0055,-3.51e-4 0.01078,-5.404e-4 0.01647,-0.00105 0.02336,-8.979e-4 0.04685,-0.00124 0.07031,-0.0014 0.04907,7.95e-5 0.09768,0.0012 0.144999,0.00601 0.385941,0.039225 0.723174,0.219655 0.968674,0.483471 0.0049,0.0052 0.0095,0.0106 0.01419,0.01598 0.0273,0.03004 0.05342,0.06106 0.07833,0.09322 0.0082,0.01065 0.01598,0.02162 0.02395,0.03261 0.02236,0.03045 0.04354,0.06169 0.06355,0.09372 0.0084,0.01358 0.01667,0.02733 0.02455,0.04103 0.01441,0.02455 0.02747,0.04988 0.04035,0.07518 0.0012,0.0027 0.0026,0.0052 0.0041,0.0077 0.0018,0.0035 0.0038,0.0069 0.0055,0.01037 0.008,0.01608 0.0158,0.03233 0.02323,0.04872 0.01381,0.03049 0.0261,0.06155 0.03782,0.09292 0.0029,0.0076 0.0055,0.01529 0.0084,0.02303 0.004,0.01059 0.0082,0.02137 0.01181,0.03228 2.68e-4,9.36e-4 5.55e-4,0.0017 8.23e-4,0.0026 0.0099,0.02973 0.01806,0.06019 0.02607,0.09045 0.0052,0.01998 0.01104,0.03984 0.01532,0.06027 0.007,0.03143 0.01174,0.06336 0.01667,0.09531 0.0032,0.02086 0.0071,0.04144 0.0095,0.06241 0.0038,0.0342 0.0051,0.06924 0.0065,0.103917 v 0 c 7.61e-4,0.01935 0.0029,0.0381 0.0029,0.05738 1.89e-4,0.05001 -0.0023,0.100843 -0.0071,0.151799 -4.21e-4,0.0041 -8.5e-5,0.008 -4.88e-4,0.01195 -0.0019,0.01835 -0.0064,0.03571 -0.0089,0.05399 -0.0057,0.04178 -0.0116,0.08372 -0.02081,0.124226 -0.01278,0.05596 -0.02832,0.110555 -0.04648,0.163972 -0.148193,0.433219 -0.48193,0.772867 -0.898898,0.935178 -0.0057,0.0022 -0.01167,0.0039 -0.01736,0.0062 m 9.73265,2.655235 c -0.160345,-0.219895 -1.454836,-1.944076 -2.97842,-2.483763 -1.8e-4,-1.9e-5 -3.6e-4,-3.7e-5 -7.01e-4,-2.53e-4 -0.0741,-0.02753 -0.150198,-0.05144 -0.227546,-0.07203 -7.01e-4,-2.53e-4 -0.0014,-5.06e-4 -0.0023,-5.98e-4 -0.07503,-0.02017 -0.151734,-0.03633 -0.229615,-0.04988 -0.0027,-4.54e-4 -0.0053,-0.0013 -0.008,-0.0017 -0.0046,-8.35e-4 -0.0093,-0.0017 -0.01393,-0.0025 -0.05239,-0.0086 -0.105067,-0.01613 -0.158487,-0.02174 -0.0013,-1.28e-4 -0.0023,-2.37e-4 -0.0036,-3.65e-4 -0.840794,-0.08545 -1.630121,0.240247 -2.168449,0.813236 -0.412041,-0.66958 -1.119698,-1.147428 -1.960493,-1.232882 -0.0403,-0.0041 -0.08038,-0.0069 -0.120321,-0.0091 v 0 c 0.102961,-0.23858 0.171707,-0.496453 0.199339,-0.768321 0.07282,-0.716466 -0.152647,-1.395623 -0.575334,-1.9139499 -0.309197,-0.379361 -0.724313,-0.671687 -1.205366,-0.8303767 l -0.512175,-2.3994392 -4.820397,-0.4899217 -0.10855,1.0680407 4.046175,0.4112336 0.275862,1.2958029 c -0.03017,0.00348 -0.06037,0.00732 -0.09027,0.011731 -0.0015,2.135e-4 -0.0028,2.655e-4 -0.004,4.973e-4 -0.0011,7.02e-5 -0.002,3.386e-4 -0.0031,4.088e-4 -1.600041,0.2233084 -3.213529,1.6503002 -3.414638,1.8332772 l -0.338112,0.307573 0.24959,0.382756 c 0.06229,0.0954 1.481854,2.239858 3.36551,2.613634 v 0 c 0.0071,0.0016 0.01425,0.0029 0.02119,0.0043 0.005,8.72e-4 0.01,0.0017 0.01481,0.0028 0.02659,0.0049 0.05296,0.01011 0.07981,0.01429 0.0041,6.01e-4 0.0081,0.001 0.01202,0.0016 0.04795,0.0076 0.09595,0.01466 0.144706,0.01962 0.0403,0.0041 0.08038,0.0069 0.120322,0.0091 -0.102979,0.238761 -0.171726,0.496634 -0.199357,0.768502 -0.06155,0.605631 0.09085,1.184471 0.394579,1.662348 l -0.139263,-0.01415 8.96e-4,-0.0088 -0.788975,-0.08019 -1.526557,3.442365 1.123638,0.114201 1.06877,-2.409819 1.8e-4,1.8e-5 -8.96e-4,0.0088 1.796921,0.182631 0.546242,2.565053 1.129575,0.114805 -0.548401,-2.565273 1.122018,0.114036 0.560097,2.566462 1.123638,0.114201 -0.565795,-2.592673 1.14253,0.116122 0.565795,2.592672 1.123638,0.114201 -0.617383,-2.829145 c 1.610593,-0.36112 2.981202,-1.725358 3.05049,-1.795393 l 0.321674,-0.324695 -0.269317,-0.369309 z"
         id="path28"
         style="stroke-width:0.0180853" /><path
         d="m 19.992679,10.70752 c -0.171649,-0.01745 -0.335101,0.02575 -0.470314,0.111261 -0.185724,0.117462 -0.318024,0.315613 -0.341962,0.551137 -0.04032,0.396736 0.240321,0.751199 0.631255,0.807474 0.0104,0.0014 0.02053,0.0037 0.03114,0.0048 0.407172,0.04138 0.770893,-0.255225 0.812276,-0.662398 0.04138,-0.407172 -0.255225,-0.770893 -0.662398,-0.812276"
         id="path56"
         style="stroke-width:0.0180853" /></g><g
       id="g3"
       transform="matrix(1.277025,1.0637767,-1.0637767,1.277025,34.996016,-23.070674)"><path
         d="m 12.409258,21.274481 -1.899186,-0.215688 -0.9528059,8.389674 1.6929839,2.115952 1.899186,0.215688 0.215688,-1.899186 -1.908672,-0.216766 0.952806,-8.389674"
         style="fill:#000000;fill-opacity:1;fill-rule:nonzero;stroke:none;stroke-width:0.00187559"
         id="path12-1" /><path
         d="m 16.217117,21.706935 -1.899187,-0.215688 -0.952806,8.389674 1.692966,2.11595 1.899186,0.215688 0.215688,-1.899186 -1.908653,-0.216763 0.952806,-8.389675"
         style="fill:#000000;fill-opacity:1;fill-rule:nonzero;stroke:none;stroke-width:0.00187559"
         id="path14-1" /><path
         d="m 8.2872797,23.608092 -1.8991863,-0.215688 -0.6386671,5.623611 1.6929651,2.11595 1.8991863,0.215688 0.2156884,-1.899186 -1.9086535,-0.216764 0.6386671,-5.623611"
         style="fill:#000000;fill-opacity:1;fill-rule:nonzero;stroke:none;stroke-width:0.00187559"
         id="path16-5" /><path
         d="M 8.6004723,20.85036 6.701286,20.634671 6.4855975,22.533858 8.3847839,22.749546 8.6004723,20.85036"
         style="fill:#000000;fill-opacity:1;fill-rule:nonzero;stroke:none;stroke-width:0.00187559"
         id="path18-2" /><path
         d="m 19.710818,24.905451 -1.899187,-0.215689 -0.638667,5.623611 1.692965,2.11595 1.899261,0.215697 0.215689,-1.899186 -1.908728,-0.216772 0.638667,-5.623611"
         style="fill:#000000;fill-opacity:1;fill-rule:nonzero;stroke:none;stroke-width:0.00187559"
         id="path20-7" /><path
         d="m 20.02401,22.147718 -1.899186,-0.215689 -0.215689,1.899187 1.899187,0.215688 0.215688,-1.899186"
         style="fill:#000000;fill-opacity:1;fill-rule:nonzero;stroke:none;stroke-width:0.00187559"
         id="path22-6" /><path
         d="m 27.326479,25.770353 -1.899205,-0.215691 -0.638667,5.623611 1.69302,2.115956 1.899205,0.215691 0.215689,-1.899187 -1.90871,-0.21677 0.638668,-5.62361"
         style="fill:#000000;fill-opacity:1;fill-rule:nonzero;stroke:none;stroke-width:0.00187559"
         id="path24-1" /><path
         d="m 27.639671,23.01262 -1.899205,-0.215691 -0.215688,1.899187 1.899205,0.21569 0.215688,-1.899186"
         style="fill:#000000;fill-opacity:1;fill-rule:nonzero;stroke:none;stroke-width:0.00187559"
         id="path26-4" /><path
         d="M 4.2637329,25.074825 5.1912889,25.180166 5.4069773,23.28098 4.4794213,23.175638 4.7935599,20.409575 2.8943867,20.193888 2.580248,22.959951 1.6306512,22.852107 1.4149627,24.751293 2.3645596,24.859138 1.941581,28.583562 3.6345516,30.699513 5.5337379,30.915201 5.7494263,29.016015 3.8407542,28.799249 4.2637329,25.074825"
         style="fill:#000000;fill-opacity:1;fill-rule:nonzero;stroke:none;stroke-width:0.00187559"
         id="path28-2" /><path
         d="m 23.303062,27.2371 0.972805,0.11048 0.215688,-1.899186 -0.972804,-0.110481 0.314138,-2.766063 -1.899205,-0.21569 -0.314138,2.766063 -0.949696,-0.107856 -0.215688,1.899186 0.949695,0.107856 -0.422978,3.724425 1.692834,2.115935 1.899205,0.21569 0.215689,-1.899186 -1.908523,-0.216749 0.422978,-3.724424"
         style="fill:#000000;fill-opacity:1;fill-rule:nonzero;stroke:none;stroke-width:0.00187559"
         id="path30-3" /><path
         d="m 32.704639,29.238607 -1.896952,-0.217247 0.104467,-0.919859 3.79636,0.431148 -1.683506,-2.11497 -1.913944,-0.217213 -2.043947,1.223341 -0.207571,1.827717 1.717566,1.650513 1.912067,0.233744 -0.10281,0.905267 -3.789298,-0.430177 1.659671,2.112094 1.913945,0.217209 2.062936,-1.221009 0.207572,-1.827718 -1.736556,-1.65284"
         style="fill:#000000;fill-opacity:1;fill-rule:nonzero;stroke:none;stroke-width:0.00187559"
         id="path32-2" /></g></g></svg>
